<mxfile host="app.diagrams.net" modified="2024-09-21T14:49:15.465Z" agent="Mozilla/5.0 (Windows NT 10.0; Win64; x64) AppleWebKit/537.36 (KHTML, like Gecko) Chrome/128.0.0.0 Safari/537.36" etag="1wGVbys6v3NdWgQFKsdU" version="24.7.1" type="device">
  <diagram name="Draft 1 System Diagram" id="MUwfvyuraNY_Zd56o2tG">
    <mxGraphModel dx="1050" dy="957" grid="0" gridSize="5" guides="1" tooltips="1" connect="1" arrows="1" fold="1" page="0" pageScale="1" pageWidth="827" pageHeight="1169" math="0" shadow="0">
      <root>
        <mxCell id="0" />
        <mxCell id="1" parent="0" />
        <mxCell id="xzF20jW_O1vHVqpB1kel-100" value="" style="rounded=1;whiteSpace=wrap;html=1;fillColor=none;dashed=1;" vertex="1" parent="1">
          <mxGeometry x="25" y="-15" width="810" height="520" as="geometry" />
        </mxCell>
        <mxCell id="xzF20jW_O1vHVqpB1kel-4" value="MCU&lt;div&gt;[Brain]&lt;/div&gt;" style="rounded=0;whiteSpace=wrap;html=1;fillColor=#F19C99;fillStyle=hatch;" vertex="1" parent="1">
          <mxGeometry x="360" y="160" width="120" height="60" as="geometry" />
        </mxCell>
        <mxCell id="xzF20jW_O1vHVqpB1kel-5" value="" style="endArrow=classic;html=1;rounded=0;entryX=0.25;entryY=0;entryDx=0;entryDy=0;exitX=0.5;exitY=1;exitDx=0;exitDy=0;" edge="1" parent="1" source="xzF20jW_O1vHVqpB1kel-6" target="xzF20jW_O1vHVqpB1kel-4">
          <mxGeometry width="50" height="50" relative="1" as="geometry">
            <mxPoint x="420" y="60" as="sourcePoint" />
            <mxPoint x="420" y="130" as="targetPoint" />
            <Array as="points">
              <mxPoint x="360" y="100" />
              <mxPoint x="390" y="100" />
            </Array>
          </mxGeometry>
        </mxCell>
        <mxCell id="xzF20jW_O1vHVqpB1kel-21" value="Data" style="edgeLabel;html=1;align=center;verticalAlign=middle;resizable=0;points=[];" vertex="1" connectable="0" parent="xzF20jW_O1vHVqpB1kel-5">
          <mxGeometry x="0.7147" y="1" relative="1" as="geometry">
            <mxPoint as="offset" />
          </mxGeometry>
        </mxCell>
        <mxCell id="xzF20jW_O1vHVqpB1kel-6" value="USB C Interface (Power + Data)" style="text;html=1;align=center;verticalAlign=middle;whiteSpace=wrap;rounded=0;strokeColor=default;fillColor=#F19C99;fillStyle=hatch;" vertex="1" parent="1">
          <mxGeometry x="300" y="10" width="120" height="30" as="geometry" />
        </mxCell>
        <mxCell id="xzF20jW_O1vHVqpB1kel-7" value="" style="endArrow=classic;html=1;rounded=0;exitX=0.75;exitY=1;exitDx=0;exitDy=0;entryX=0.5;entryY=0;entryDx=0;entryDy=0;" edge="1" parent="1" source="xzF20jW_O1vHVqpB1kel-4" target="xzF20jW_O1vHVqpB1kel-8">
          <mxGeometry width="50" height="50" relative="1" as="geometry">
            <mxPoint x="460" y="250" as="sourcePoint" />
            <mxPoint x="450" y="400" as="targetPoint" />
          </mxGeometry>
        </mxCell>
        <mxCell id="xzF20jW_O1vHVqpB1kel-8" value="Radio (Where shit lines up to leave)" style="text;html=1;align=center;verticalAlign=middle;whiteSpace=wrap;rounded=0;strokeColor=default;fillColor=#FFD966;fillStyle=hatch;" vertex="1" parent="1">
          <mxGeometry x="390" y="380" width="120" height="30" as="geometry" />
        </mxCell>
        <mxCell id="xzF20jW_O1vHVqpB1kel-9" value="" style="endArrow=classic;html=1;rounded=0;exitX=0.5;exitY=1;exitDx=0;exitDy=0;entryX=0.5;entryY=0;entryDx=0;entryDy=0;" edge="1" parent="1" source="xzF20jW_O1vHVqpB1kel-8" target="xzF20jW_O1vHVqpB1kel-10">
          <mxGeometry width="50" height="50" relative="1" as="geometry">
            <mxPoint x="540" y="530" as="sourcePoint" />
            <mxPoint x="450" y="450" as="targetPoint" />
          </mxGeometry>
        </mxCell>
        <mxCell id="xzF20jW_O1vHVqpB1kel-10" value="Antenna (Where shit leaves)" style="text;html=1;align=center;verticalAlign=middle;whiteSpace=wrap;rounded=0;strokeColor=default;fillColor=#FFD966;fillStyle=hatch;" vertex="1" parent="1">
          <mxGeometry x="390" y="460" width="120" height="30" as="geometry" />
        </mxCell>
        <mxCell id="xzF20jW_O1vHVqpB1kel-11" value="GPS" style="rounded=0;whiteSpace=wrap;html=1;fillColor=#97D077;fillStyle=hatch;" vertex="1" parent="1">
          <mxGeometry x="80" y="160" width="50" height="50" as="geometry" />
        </mxCell>
        <mxCell id="xzF20jW_O1vHVqpB1kel-12" value="" style="endArrow=classic;html=1;rounded=0;entryX=0.5;entryY=0;entryDx=0;entryDy=0;exitX=0.5;exitY=1;exitDx=0;exitDy=0;" edge="1" parent="1" source="xzF20jW_O1vHVqpB1kel-15" target="xzF20jW_O1vHVqpB1kel-11">
          <mxGeometry width="50" height="50" relative="1" as="geometry">
            <mxPoint x="105" y="80" as="sourcePoint" />
            <mxPoint x="120" y="60" as="targetPoint" />
          </mxGeometry>
        </mxCell>
        <mxCell id="xzF20jW_O1vHVqpB1kel-13" value="" style="endArrow=classic;html=1;rounded=0;entryX=0.75;entryY=0;entryDx=0;entryDy=0;exitX=0.5;exitY=1;exitDx=0;exitDy=0;" edge="1" parent="1" source="xzF20jW_O1vHVqpB1kel-14" target="xzF20jW_O1vHVqpB1kel-4">
          <mxGeometry width="50" height="50" relative="1" as="geometry">
            <mxPoint x="450" y="100" as="sourcePoint" />
            <mxPoint x="600" y="70" as="targetPoint" />
            <Array as="points">
              <mxPoint x="490" y="100" />
              <mxPoint x="450" y="100" />
            </Array>
          </mxGeometry>
        </mxCell>
        <mxCell id="xzF20jW_O1vHVqpB1kel-14" value="Debugging Interface (ST LInk)" style="text;html=1;align=center;verticalAlign=middle;whiteSpace=wrap;rounded=0;strokeColor=default;fillColor=#F19C99;fillStyle=hatch;" vertex="1" parent="1">
          <mxGeometry x="430" y="10" width="120" height="30" as="geometry" />
        </mxCell>
        <mxCell id="xzF20jW_O1vHVqpB1kel-15" value="Satellite Data" style="text;html=1;align=center;verticalAlign=middle;whiteSpace=wrap;rounded=0;strokeColor=default;" vertex="1" parent="1">
          <mxGeometry x="65" y="70" width="80" height="30" as="geometry" />
        </mxCell>
        <mxCell id="xzF20jW_O1vHVqpB1kel-16" value="Power Source - 18350 cell [3.7V 1.8A]" style="text;html=1;align=center;verticalAlign=middle;whiteSpace=wrap;rounded=0;strokeColor=default;fillColor=#F19C99;fillStyle=hatch;" vertex="1" parent="1">
          <mxGeometry x="680" y="160" width="120" height="60" as="geometry" />
        </mxCell>
        <mxCell id="xzF20jW_O1vHVqpB1kel-18" value="Regulation Station" style="rounded=0;whiteSpace=wrap;html=1;fillColor=#F19C99;fillStyle=hatch;" vertex="1" parent="1">
          <mxGeometry x="560" y="160" width="80" height="60" as="geometry" />
        </mxCell>
        <mxCell id="xzF20jW_O1vHVqpB1kel-20" value="" style="endArrow=classic;html=1;rounded=0;strokeColor=#FF8000;entryX=0.5;entryY=0;entryDx=0;entryDy=0;" edge="1" parent="1" target="xzF20jW_O1vHVqpB1kel-18">
          <mxGeometry width="50" height="50" relative="1" as="geometry">
            <mxPoint x="390" y="110" as="sourcePoint" />
            <mxPoint x="600" y="150" as="targetPoint" />
            <Array as="points">
              <mxPoint x="600" y="110" />
            </Array>
          </mxGeometry>
        </mxCell>
        <mxCell id="xzF20jW_O1vHVqpB1kel-22" value="USB Power" style="edgeLabel;html=1;align=center;verticalAlign=middle;resizable=0;points=[];" vertex="1" connectable="0" parent="xzF20jW_O1vHVqpB1kel-20">
          <mxGeometry x="0.272" y="2" relative="1" as="geometry">
            <mxPoint as="offset" />
          </mxGeometry>
        </mxCell>
        <mxCell id="xzF20jW_O1vHVqpB1kel-23" value="" style="endArrow=classic;html=1;rounded=0;entryX=1;entryY=0.5;entryDx=0;entryDy=0;exitX=0;exitY=0.5;exitDx=0;exitDy=0;strokeColor=#FF0000;" edge="1" parent="1" source="xzF20jW_O1vHVqpB1kel-16" target="xzF20jW_O1vHVqpB1kel-18">
          <mxGeometry width="50" height="50" relative="1" as="geometry">
            <mxPoint x="720" y="270" as="sourcePoint" />
            <mxPoint x="640" y="270" as="targetPoint" />
          </mxGeometry>
        </mxCell>
        <mxCell id="xzF20jW_O1vHVqpB1kel-25" value="Charging Station" style="rounded=0;whiteSpace=wrap;html=1;fillStyle=hatch;fillColor=#F19C99;" vertex="1" parent="1">
          <mxGeometry x="700" y="80" width="80" height="60" as="geometry" />
        </mxCell>
        <mxCell id="xzF20jW_O1vHVqpB1kel-26" value="" style="endArrow=classic;html=1;rounded=0;entryX=0.5;entryY=0;entryDx=0;entryDy=0;exitX=0.5;exitY=1;exitDx=0;exitDy=0;strokeColor=#FF8000;" edge="1" parent="1" source="xzF20jW_O1vHVqpB1kel-25" target="xzF20jW_O1vHVqpB1kel-16">
          <mxGeometry width="50" height="50" relative="1" as="geometry">
            <mxPoint x="640" y="120" as="sourcePoint" />
            <mxPoint x="690" y="70" as="targetPoint" />
          </mxGeometry>
        </mxCell>
        <mxCell id="xzF20jW_O1vHVqpB1kel-27" value="" style="endArrow=classic;html=1;rounded=0;entryX=0;entryY=0.5;entryDx=0;entryDy=0;strokeColor=#FF8000;" edge="1" parent="1" target="xzF20jW_O1vHVqpB1kel-25">
          <mxGeometry width="50" height="50" relative="1" as="geometry">
            <mxPoint x="600" y="110" as="sourcePoint" />
            <mxPoint x="610" y="50" as="targetPoint" />
          </mxGeometry>
        </mxCell>
        <mxCell id="xzF20jW_O1vHVqpB1kel-28" value="GPS Battery" style="rounded=0;whiteSpace=wrap;html=1;fillStyle=hatch;fillColor=#97D077;" vertex="1" parent="1">
          <mxGeometry x="80" y="280" width="50" height="30" as="geometry" />
        </mxCell>
        <mxCell id="xzF20jW_O1vHVqpB1kel-29" value="" style="endArrow=classic;html=1;rounded=0;entryX=0.5;entryY=1;entryDx=0;entryDy=0;exitX=0.5;exitY=0;exitDx=0;exitDy=0;strokeColor=#FF0000;" edge="1" parent="1" source="xzF20jW_O1vHVqpB1kel-28" target="xzF20jW_O1vHVqpB1kel-11">
          <mxGeometry width="50" height="50" relative="1" as="geometry">
            <mxPoint x="250" y="240" as="sourcePoint" />
            <mxPoint x="170" y="240" as="targetPoint" />
          </mxGeometry>
        </mxCell>
        <mxCell id="xzF20jW_O1vHVqpB1kel-30" value="" style="endArrow=classic;html=1;rounded=0;entryX=0.75;entryY=1;entryDx=0;entryDy=0;strokeColor=#FF0000;exitX=0.5;exitY=1;exitDx=0;exitDy=0;" edge="1" parent="1" source="xzF20jW_O1vHVqpB1kel-79" target="xzF20jW_O1vHVqpB1kel-11">
          <mxGeometry width="50" height="50" relative="1" as="geometry">
            <mxPoint x="535" y="205" as="sourcePoint" />
            <mxPoint x="520" y="230" as="targetPoint" />
            <Array as="points">
              <mxPoint x="520" y="205" />
              <mxPoint x="520" y="240" />
              <mxPoint x="118" y="240" />
            </Array>
          </mxGeometry>
        </mxCell>
        <mxCell id="xzF20jW_O1vHVqpB1kel-35" value="" style="group" vertex="1" connectable="0" parent="1">
          <mxGeometry x="75" y="220" width="20" height="20" as="geometry" />
        </mxCell>
        <mxCell id="xzF20jW_O1vHVqpB1kel-31" value="" style="endArrow=none;html=1;rounded=0;" edge="1" parent="xzF20jW_O1vHVqpB1kel-35">
          <mxGeometry width="50" height="50" relative="1" as="geometry">
            <mxPoint x="3.333333333333334" y="15.052684395383881" as="sourcePoint" />
            <mxPoint x="16.666666666666664" y="15.052684395383881" as="targetPoint" />
          </mxGeometry>
        </mxCell>
        <mxCell id="xzF20jW_O1vHVqpB1kel-32" value="" style="endArrow=none;html=1;rounded=0;" edge="1" parent="xzF20jW_O1vHVqpB1kel-35">
          <mxGeometry width="50" height="50" relative="1" as="geometry">
            <mxPoint x="6.666666666666668" y="20" as="sourcePoint" />
            <mxPoint x="13.333333333333336" y="20" as="targetPoint" />
          </mxGeometry>
        </mxCell>
        <mxCell id="xzF20jW_O1vHVqpB1kel-33" value="" style="endArrow=none;html=1;rounded=0;" edge="1" parent="xzF20jW_O1vHVqpB1kel-35">
          <mxGeometry width="50" height="50" relative="1" as="geometry">
            <mxPoint y="10.03512293025592" as="sourcePoint" />
            <mxPoint x="20" y="10.03512293025592" as="targetPoint" />
          </mxGeometry>
        </mxCell>
        <mxCell id="xzF20jW_O1vHVqpB1kel-34" value="" style="endArrow=none;html=1;rounded=0;" edge="1" parent="xzF20jW_O1vHVqpB1kel-35">
          <mxGeometry width="50" height="50" relative="1" as="geometry">
            <mxPoint x="10" y="10.03512293025592" as="sourcePoint" />
            <mxPoint x="10" as="targetPoint" />
          </mxGeometry>
        </mxCell>
        <mxCell id="xzF20jW_O1vHVqpB1kel-37" value="" style="endArrow=none;html=1;rounded=0;" edge="1" parent="1">
          <mxGeometry width="50" height="50" relative="1" as="geometry">
            <mxPoint x="84.96" y="220" as="sourcePoint" />
            <mxPoint x="84.96" y="210" as="targetPoint" />
          </mxGeometry>
        </mxCell>
        <mxCell id="xzF20jW_O1vHVqpB1kel-38" value="" style="group" vertex="1" connectable="0" parent="1">
          <mxGeometry x="370" y="255" width="20" height="20" as="geometry" />
        </mxCell>
        <mxCell id="xzF20jW_O1vHVqpB1kel-39" value="" style="endArrow=none;html=1;rounded=0;" edge="1" parent="xzF20jW_O1vHVqpB1kel-38">
          <mxGeometry width="50" height="50" relative="1" as="geometry">
            <mxPoint x="3.333333333333334" y="15.052684395383881" as="sourcePoint" />
            <mxPoint x="16.666666666666664" y="15.052684395383881" as="targetPoint" />
          </mxGeometry>
        </mxCell>
        <mxCell id="xzF20jW_O1vHVqpB1kel-40" value="" style="endArrow=none;html=1;rounded=0;" edge="1" parent="xzF20jW_O1vHVqpB1kel-38">
          <mxGeometry width="50" height="50" relative="1" as="geometry">
            <mxPoint x="6.666666666666668" y="20" as="sourcePoint" />
            <mxPoint x="13.333333333333336" y="20" as="targetPoint" />
          </mxGeometry>
        </mxCell>
        <mxCell id="xzF20jW_O1vHVqpB1kel-41" value="" style="endArrow=none;html=1;rounded=0;" edge="1" parent="xzF20jW_O1vHVqpB1kel-38">
          <mxGeometry width="50" height="50" relative="1" as="geometry">
            <mxPoint y="10.03512293025592" as="sourcePoint" />
            <mxPoint x="20" y="10.03512293025592" as="targetPoint" />
          </mxGeometry>
        </mxCell>
        <mxCell id="xzF20jW_O1vHVqpB1kel-42" value="" style="endArrow=none;html=1;rounded=0;" edge="1" parent="xzF20jW_O1vHVqpB1kel-38">
          <mxGeometry width="50" height="50" relative="1" as="geometry">
            <mxPoint x="10" y="10.03512293025592" as="sourcePoint" />
            <mxPoint x="10" as="targetPoint" />
          </mxGeometry>
        </mxCell>
        <mxCell id="xzF20jW_O1vHVqpB1kel-43" value="" style="endArrow=none;html=1;rounded=0;" edge="1" parent="1">
          <mxGeometry width="50" height="50" relative="1" as="geometry">
            <mxPoint x="380" y="255" as="sourcePoint" />
            <mxPoint x="380" y="220" as="targetPoint" />
          </mxGeometry>
        </mxCell>
        <mxCell id="xzF20jW_O1vHVqpB1kel-44" value="" style="group" vertex="1" connectable="0" parent="1">
          <mxGeometry x="490" y="420" width="20" height="20" as="geometry" />
        </mxCell>
        <mxCell id="xzF20jW_O1vHVqpB1kel-45" value="" style="endArrow=none;html=1;rounded=0;" edge="1" parent="xzF20jW_O1vHVqpB1kel-44">
          <mxGeometry width="50" height="50" relative="1" as="geometry">
            <mxPoint x="3.333333333333334" y="15.052684395383881" as="sourcePoint" />
            <mxPoint x="16.666666666666664" y="15.052684395383881" as="targetPoint" />
          </mxGeometry>
        </mxCell>
        <mxCell id="xzF20jW_O1vHVqpB1kel-46" value="" style="endArrow=none;html=1;rounded=0;" edge="1" parent="xzF20jW_O1vHVqpB1kel-44">
          <mxGeometry width="50" height="50" relative="1" as="geometry">
            <mxPoint x="6.666666666666668" y="20" as="sourcePoint" />
            <mxPoint x="13.333333333333336" y="20" as="targetPoint" />
          </mxGeometry>
        </mxCell>
        <mxCell id="xzF20jW_O1vHVqpB1kel-47" value="" style="endArrow=none;html=1;rounded=0;" edge="1" parent="xzF20jW_O1vHVqpB1kel-44">
          <mxGeometry width="50" height="50" relative="1" as="geometry">
            <mxPoint y="10.03512293025592" as="sourcePoint" />
            <mxPoint x="20" y="10.03512293025592" as="targetPoint" />
          </mxGeometry>
        </mxCell>
        <mxCell id="xzF20jW_O1vHVqpB1kel-48" value="" style="endArrow=none;html=1;rounded=0;" edge="1" parent="xzF20jW_O1vHVqpB1kel-44">
          <mxGeometry width="50" height="50" relative="1" as="geometry">
            <mxPoint x="10" y="10.03512293025592" as="sourcePoint" />
            <mxPoint x="10" as="targetPoint" />
          </mxGeometry>
        </mxCell>
        <mxCell id="xzF20jW_O1vHVqpB1kel-49" value="" style="endArrow=none;html=1;rounded=0;" edge="1" parent="1">
          <mxGeometry width="50" height="50" relative="1" as="geometry">
            <mxPoint x="499.89" y="410" as="sourcePoint" />
            <mxPoint x="499.89" y="420" as="targetPoint" />
          </mxGeometry>
        </mxCell>
        <mxCell id="xzF20jW_O1vHVqpB1kel-50" value="" style="endArrow=classic;html=1;rounded=0;entryX=1;entryY=0.5;entryDx=0;entryDy=0;strokeColor=#FF0000;" edge="1" parent="1">
          <mxGeometry width="50" height="50" relative="1" as="geometry">
            <mxPoint x="480" y="240" as="sourcePoint" />
            <mxPoint x="480" y="379" as="targetPoint" />
          </mxGeometry>
        </mxCell>
        <mxCell id="xzF20jW_O1vHVqpB1kel-51" value="IMU" style="rounded=0;whiteSpace=wrap;html=1;fillColor=#B5739D;fillStyle=hatch;" vertex="1" parent="1">
          <mxGeometry x="210" y="145" width="50" height="50" as="geometry" />
        </mxCell>
        <mxCell id="xzF20jW_O1vHVqpB1kel-52" value="" style="endArrow=classic;html=1;rounded=0;entryX=0.5;entryY=1;entryDx=0;entryDy=0;strokeColor=#FF0000;" edge="1" parent="1" target="xzF20jW_O1vHVqpB1kel-51">
          <mxGeometry width="50" height="50" relative="1" as="geometry">
            <mxPoint x="235" y="240" as="sourcePoint" />
            <mxPoint x="234.5" y="210" as="targetPoint" />
          </mxGeometry>
        </mxCell>
        <mxCell id="xzF20jW_O1vHVqpB1kel-53" value="" style="endArrow=classic;html=1;rounded=0;exitX=1;exitY=0.5;exitDx=0;exitDy=0;" edge="1" parent="1" source="xzF20jW_O1vHVqpB1kel-51">
          <mxGeometry width="50" height="50" relative="1" as="geometry">
            <mxPoint x="270" y="184.76" as="sourcePoint" />
            <mxPoint x="360" y="185" as="targetPoint" />
            <Array as="points">
              <mxPoint x="310" y="170" />
              <mxPoint x="310" y="185" />
            </Array>
          </mxGeometry>
        </mxCell>
        <mxCell id="xzF20jW_O1vHVqpB1kel-54" value="" style="endArrow=classic;html=1;rounded=0;exitX=1;exitY=0.5;exitDx=0;exitDy=0;" edge="1" parent="1" source="xzF20jW_O1vHVqpB1kel-11">
          <mxGeometry width="50" height="50" relative="1" as="geometry">
            <mxPoint x="140" y="210" as="sourcePoint" />
            <mxPoint x="360" y="210" as="targetPoint" />
            <Array as="points">
              <mxPoint x="155" y="185" />
              <mxPoint x="155" y="210" />
            </Array>
          </mxGeometry>
        </mxCell>
        <mxCell id="xzF20jW_O1vHVqpB1kel-55" value="" style="endArrow=classic;html=1;rounded=0;entryX=0.5;entryY=0;entryDx=0;entryDy=0;" edge="1" parent="1" target="xzF20jW_O1vHVqpB1kel-51">
          <mxGeometry width="50" height="50" relative="1" as="geometry">
            <mxPoint x="235" y="100" as="sourcePoint" />
            <mxPoint x="230" y="90" as="targetPoint" />
          </mxGeometry>
        </mxCell>
        <mxCell id="xzF20jW_O1vHVqpB1kel-56" value="Kinetics m8" style="text;html=1;align=center;verticalAlign=middle;whiteSpace=wrap;rounded=0;strokeColor=default;fillColor=#B5739D;fillStyle=hatch;" vertex="1" parent="1">
          <mxGeometry x="205" y="70" width="60" height="30" as="geometry" />
        </mxCell>
        <mxCell id="xzF20jW_O1vHVqpB1kel-58" value="" style="endArrow=classic;html=1;rounded=0;exitX=1;exitY=0.5;exitDx=0;exitDy=0;" edge="1" parent="1" source="xzF20jW_O1vHVqpB1kel-62">
          <mxGeometry width="50" height="50" relative="1" as="geometry">
            <mxPoint x="360" y="340" as="sourcePoint" />
            <mxPoint x="420" y="220" as="targetPoint" />
            <Array as="points">
              <mxPoint x="420" y="340" />
            </Array>
          </mxGeometry>
        </mxCell>
        <mxCell id="xzF20jW_O1vHVqpB1kel-62" value="Pressure Sensor" style="rounded=0;whiteSpace=wrap;html=1;fillColor=#F19C99;fillStyle=hatch;" vertex="1" parent="1">
          <mxGeometry x="305" y="315" width="55" height="50" as="geometry" />
        </mxCell>
        <mxCell id="xzF20jW_O1vHVqpB1kel-63" value="" style="endArrow=classic;html=1;rounded=0;entryX=1;entryY=0.5;entryDx=0;entryDy=0;strokeColor=#FF0000;" edge="1" parent="1">
          <mxGeometry width="50" height="50" relative="1" as="geometry">
            <mxPoint x="332.08" y="240" as="sourcePoint" />
            <mxPoint x="332.08" y="315" as="targetPoint" />
          </mxGeometry>
        </mxCell>
        <mxCell id="xzF20jW_O1vHVqpB1kel-64" value="" style="endArrow=classic;startArrow=classic;html=1;rounded=0;entryX=0;entryY=0.5;entryDx=0;entryDy=0;" edge="1" parent="1" target="xzF20jW_O1vHVqpB1kel-65">
          <mxGeometry width="50" height="50" relative="1" as="geometry">
            <mxPoint x="465" y="220" as="sourcePoint" />
            <mxPoint x="560" y="260" as="targetPoint" />
            <Array as="points">
              <mxPoint x="465" y="285" />
            </Array>
          </mxGeometry>
        </mxCell>
        <mxCell id="xzF20jW_O1vHVqpB1kel-65" value="External Flash Storage" style="rounded=0;whiteSpace=wrap;html=1;fillColor=#F19C99;fillStyle=hatch;" vertex="1" parent="1">
          <mxGeometry x="515" y="255" width="80" height="60" as="geometry" />
        </mxCell>
        <mxCell id="xzF20jW_O1vHVqpB1kel-67" value="" style="group" vertex="1" connectable="0" parent="1">
          <mxGeometry x="275" y="345" width="20" height="20" as="geometry" />
        </mxCell>
        <mxCell id="xzF20jW_O1vHVqpB1kel-68" value="" style="endArrow=none;html=1;rounded=0;" edge="1" parent="xzF20jW_O1vHVqpB1kel-67">
          <mxGeometry width="50" height="50" relative="1" as="geometry">
            <mxPoint x="3.333333333333334" y="15.052684395383881" as="sourcePoint" />
            <mxPoint x="16.666666666666664" y="15.052684395383881" as="targetPoint" />
          </mxGeometry>
        </mxCell>
        <mxCell id="xzF20jW_O1vHVqpB1kel-69" value="" style="endArrow=none;html=1;rounded=0;" edge="1" parent="xzF20jW_O1vHVqpB1kel-67">
          <mxGeometry width="50" height="50" relative="1" as="geometry">
            <mxPoint x="6.666666666666668" y="20" as="sourcePoint" />
            <mxPoint x="13.333333333333336" y="20" as="targetPoint" />
          </mxGeometry>
        </mxCell>
        <mxCell id="xzF20jW_O1vHVqpB1kel-70" value="" style="endArrow=none;html=1;rounded=0;" edge="1" parent="xzF20jW_O1vHVqpB1kel-67">
          <mxGeometry width="50" height="50" relative="1" as="geometry">
            <mxPoint y="10.03512293025592" as="sourcePoint" />
            <mxPoint x="20" y="10.03512293025592" as="targetPoint" />
          </mxGeometry>
        </mxCell>
        <mxCell id="xzF20jW_O1vHVqpB1kel-71" value="" style="endArrow=none;html=1;rounded=0;" edge="1" parent="xzF20jW_O1vHVqpB1kel-67">
          <mxGeometry width="50" height="50" relative="1" as="geometry">
            <mxPoint x="10" y="10.03512293025592" as="sourcePoint" />
            <mxPoint x="10" as="targetPoint" />
          </mxGeometry>
        </mxCell>
        <mxCell id="xzF20jW_O1vHVqpB1kel-72" value="" style="group" vertex="1" connectable="0" parent="1">
          <mxGeometry x="185" y="170" width="20" height="20" as="geometry" />
        </mxCell>
        <mxCell id="xzF20jW_O1vHVqpB1kel-73" value="" style="endArrow=none;html=1;rounded=0;" edge="1" parent="xzF20jW_O1vHVqpB1kel-72">
          <mxGeometry width="50" height="50" relative="1" as="geometry">
            <mxPoint x="3.333333333333334" y="15.052684395383881" as="sourcePoint" />
            <mxPoint x="16.666666666666664" y="15.052684395383881" as="targetPoint" />
          </mxGeometry>
        </mxCell>
        <mxCell id="xzF20jW_O1vHVqpB1kel-74" value="" style="endArrow=none;html=1;rounded=0;" edge="1" parent="xzF20jW_O1vHVqpB1kel-72">
          <mxGeometry width="50" height="50" relative="1" as="geometry">
            <mxPoint x="6.666666666666668" y="20" as="sourcePoint" />
            <mxPoint x="13.333333333333336" y="20" as="targetPoint" />
          </mxGeometry>
        </mxCell>
        <mxCell id="xzF20jW_O1vHVqpB1kel-75" value="" style="endArrow=none;html=1;rounded=0;" edge="1" parent="xzF20jW_O1vHVqpB1kel-72">
          <mxGeometry width="50" height="50" relative="1" as="geometry">
            <mxPoint y="10.03512293025592" as="sourcePoint" />
            <mxPoint x="20" y="10.03512293025592" as="targetPoint" />
          </mxGeometry>
        </mxCell>
        <mxCell id="xzF20jW_O1vHVqpB1kel-76" value="" style="endArrow=none;html=1;rounded=0;" edge="1" parent="xzF20jW_O1vHVqpB1kel-72">
          <mxGeometry width="50" height="50" relative="1" as="geometry">
            <mxPoint x="10" y="10.03512293025592" as="sourcePoint" />
            <mxPoint x="10" as="targetPoint" />
          </mxGeometry>
        </mxCell>
        <mxCell id="xzF20jW_O1vHVqpB1kel-77" value="" style="endArrow=none;html=1;rounded=0;entryX=0;entryY=0.5;entryDx=0;entryDy=0;" edge="1" parent="1" target="xzF20jW_O1vHVqpB1kel-51">
          <mxGeometry width="50" height="50" relative="1" as="geometry">
            <mxPoint x="195" y="170" as="sourcePoint" />
            <mxPoint x="245" y="120" as="targetPoint" />
          </mxGeometry>
        </mxCell>
        <mxCell id="xzF20jW_O1vHVqpB1kel-78" value="" style="endArrow=none;html=1;rounded=0;" edge="1" parent="1">
          <mxGeometry width="50" height="50" relative="1" as="geometry">
            <mxPoint x="285" y="345" as="sourcePoint" />
            <mxPoint x="305" y="345" as="targetPoint" />
          </mxGeometry>
        </mxCell>
        <mxCell id="xzF20jW_O1vHVqpB1kel-79" value="Switch" style="rounded=0;whiteSpace=wrap;html=1;fillColor=#F19C99;fillStyle=hatch;" vertex="1" parent="1">
          <mxGeometry x="500" y="180" width="40" height="20" as="geometry" />
        </mxCell>
        <mxCell id="xzF20jW_O1vHVqpB1kel-86" value="" style="endArrow=classic;html=1;rounded=0;entryX=1;entryY=0.5;entryDx=0;entryDy=0;strokeColor=#FF0000;" edge="1" parent="1">
          <mxGeometry width="50" height="50" relative="1" as="geometry">
            <mxPoint x="560" y="190" as="sourcePoint" />
            <mxPoint x="540" y="190" as="targetPoint" />
          </mxGeometry>
        </mxCell>
        <mxCell id="xzF20jW_O1vHVqpB1kel-87" value="" style="endArrow=classic;html=1;rounded=0;entryX=1;entryY=0.5;entryDx=0;entryDy=0;strokeColor=#FF0000;" edge="1" parent="1">
          <mxGeometry width="50" height="50" relative="1" as="geometry">
            <mxPoint x="500" y="190" as="sourcePoint" />
            <mxPoint x="480" y="189.52" as="targetPoint" />
          </mxGeometry>
        </mxCell>
        <mxCell id="xzF20jW_O1vHVqpB1kel-88" value="" style="endArrow=classic;html=1;rounded=0;entryX=0.5;entryY=0;entryDx=0;entryDy=0;strokeColor=#FF0000;" edge="1" parent="1" target="xzF20jW_O1vHVqpB1kel-65">
          <mxGeometry width="50" height="50" relative="1" as="geometry">
            <mxPoint x="520" y="240" as="sourcePoint" />
            <mxPoint x="655" y="205" as="targetPoint" />
            <Array as="points">
              <mxPoint x="555" y="240" />
            </Array>
          </mxGeometry>
        </mxCell>
        <mxCell id="xzF20jW_O1vHVqpB1kel-89" value="" style="endArrow=classic;html=1;rounded=0;" edge="1" parent="1">
          <mxGeometry width="50" height="50" relative="1" as="geometry">
            <mxPoint x="332.3" y="385" as="sourcePoint" />
            <mxPoint x="332.3" y="365" as="targetPoint" />
          </mxGeometry>
        </mxCell>
        <mxCell id="xzF20jW_O1vHVqpB1kel-90" value="Haw Air Pal" style="rounded=0;whiteSpace=wrap;html=1;" vertex="1" parent="1">
          <mxGeometry x="302.5" y="385" width="60" height="35" as="geometry" />
        </mxCell>
        <mxCell id="xzF20jW_O1vHVqpB1kel-91" value="" style="endArrow=classic;html=1;rounded=0;exitX=0.75;exitY=1;exitDx=0;exitDy=0;strokeColor=#FF0000;entryX=0;entryY=0.5;entryDx=0;entryDy=0;" edge="1" parent="1" source="xzF20jW_O1vHVqpB1kel-18" target="xzF20jW_O1vHVqpB1kel-96">
          <mxGeometry width="50" height="50" relative="1" as="geometry">
            <mxPoint x="700" y="300" as="sourcePoint" />
            <mxPoint x="660" y="280" as="targetPoint" />
            <Array as="points">
              <mxPoint x="620" y="268" />
            </Array>
          </mxGeometry>
        </mxCell>
        <mxCell id="xzF20jW_O1vHVqpB1kel-92" value="Pyro" style="rounded=0;whiteSpace=wrap;html=1;fillColor=#7EA6E0;fillStyle=hatch;" vertex="1" parent="1">
          <mxGeometry x="665" y="300" width="60" height="40" as="geometry" />
        </mxCell>
        <mxCell id="xzF20jW_O1vHVqpB1kel-93" value="" style="endArrow=classic;html=1;rounded=0;exitX=1;exitY=0.75;exitDx=0;exitDy=0;entryX=0;entryY=0.5;entryDx=0;entryDy=0;" edge="1" parent="1" source="xzF20jW_O1vHVqpB1kel-4" target="xzF20jW_O1vHVqpB1kel-92">
          <mxGeometry width="50" height="50" relative="1" as="geometry">
            <mxPoint x="610" y="310" as="sourcePoint" />
            <mxPoint x="660" y="260" as="targetPoint" />
            <Array as="points">
              <mxPoint x="500" y="205" />
              <mxPoint x="500" y="230" />
              <mxPoint x="640" y="230" />
              <mxPoint x="640" y="320" />
            </Array>
          </mxGeometry>
        </mxCell>
        <mxCell id="xzF20jW_O1vHVqpB1kel-94" value="" style="endArrow=classic;html=1;rounded=0;exitX=0.5;exitY=1;exitDx=0;exitDy=0;entryX=0.5;entryY=0;entryDx=0;entryDy=0;" edge="1" parent="1" source="xzF20jW_O1vHVqpB1kel-92" target="xzF20jW_O1vHVqpB1kel-95">
          <mxGeometry width="50" height="50" relative="1" as="geometry">
            <mxPoint x="700" y="350" as="sourcePoint" />
            <mxPoint x="695" y="335" as="targetPoint" />
          </mxGeometry>
        </mxCell>
        <mxCell id="xzF20jW_O1vHVqpB1kel-95" value="E-Match" style="rounded=0;whiteSpace=wrap;html=1;fillColor=#7EA6E0;fillStyle=hatch;" vertex="1" parent="1">
          <mxGeometry x="665" y="365" width="60" height="25" as="geometry" />
        </mxCell>
        <mxCell id="xzF20jW_O1vHVqpB1kel-96" value="Big Farad Capacitor" style="rounded=0;whiteSpace=wrap;html=1;fillColor=#7EA6E0;fillStyle=hatch;" vertex="1" parent="1">
          <mxGeometry x="665" y="250" width="60" height="35" as="geometry" />
        </mxCell>
        <mxCell id="xzF20jW_O1vHVqpB1kel-97" value="" style="endArrow=classic;html=1;rounded=0;entryX=0.5;entryY=0;entryDx=0;entryDy=0;exitX=0.5;exitY=1;exitDx=0;exitDy=0;strokeColor=#FF0000;" edge="1" parent="1" source="xzF20jW_O1vHVqpB1kel-96" target="xzF20jW_O1vHVqpB1kel-92">
          <mxGeometry width="50" height="50" relative="1" as="geometry">
            <mxPoint x="690" y="285" as="sourcePoint" />
            <mxPoint x="650" y="285" as="targetPoint" />
          </mxGeometry>
        </mxCell>
        <mxCell id="xzF20jW_O1vHVqpB1kel-99" value="" style="endArrow=classic;html=1;rounded=0;entryX=0.75;entryY=0;entryDx=0;entryDy=0;exitX=0.75;exitY=1;exitDx=0;exitDy=0;strokeColor=#FF0000;" edge="1" parent="1" source="xzF20jW_O1vHVqpB1kel-92" target="xzF20jW_O1vHVqpB1kel-95">
          <mxGeometry width="50" height="50" relative="1" as="geometry">
            <mxPoint x="710" y="220" as="sourcePoint" />
            <mxPoint x="670" y="220" as="targetPoint" />
          </mxGeometry>
        </mxCell>
        <mxCell id="xzF20jW_O1vHVqpB1kel-101" value="Drill Holes" style="text;html=1;align=center;verticalAlign=middle;whiteSpace=wrap;rounded=0;" vertex="1" parent="1">
          <mxGeometry x="65" y="460" width="60" height="30" as="geometry" />
        </mxCell>
        <mxCell id="xzF20jW_O1vHVqpB1kel-102" value="" style="group" vertex="1" connectable="0" parent="1">
          <mxGeometry x="730" y="320" width="20" height="20" as="geometry" />
        </mxCell>
        <mxCell id="xzF20jW_O1vHVqpB1kel-103" value="" style="endArrow=none;html=1;rounded=0;" edge="1" parent="xzF20jW_O1vHVqpB1kel-102">
          <mxGeometry width="50" height="50" relative="1" as="geometry">
            <mxPoint x="3.333333333333334" y="15.052684395383881" as="sourcePoint" />
            <mxPoint x="16.666666666666664" y="15.052684395383881" as="targetPoint" />
          </mxGeometry>
        </mxCell>
        <mxCell id="xzF20jW_O1vHVqpB1kel-104" value="" style="endArrow=none;html=1;rounded=0;" edge="1" parent="xzF20jW_O1vHVqpB1kel-102">
          <mxGeometry width="50" height="50" relative="1" as="geometry">
            <mxPoint x="6.666666666666668" y="20" as="sourcePoint" />
            <mxPoint x="13.333333333333336" y="20" as="targetPoint" />
          </mxGeometry>
        </mxCell>
        <mxCell id="xzF20jW_O1vHVqpB1kel-105" value="" style="endArrow=none;html=1;rounded=0;" edge="1" parent="xzF20jW_O1vHVqpB1kel-102">
          <mxGeometry width="50" height="50" relative="1" as="geometry">
            <mxPoint y="10.03512293025592" as="sourcePoint" />
            <mxPoint x="20" y="10.03512293025592" as="targetPoint" />
          </mxGeometry>
        </mxCell>
        <mxCell id="xzF20jW_O1vHVqpB1kel-106" value="" style="endArrow=none;html=1;rounded=0;" edge="1" parent="xzF20jW_O1vHVqpB1kel-102">
          <mxGeometry width="50" height="50" relative="1" as="geometry">
            <mxPoint x="10" y="10.03512293025592" as="sourcePoint" />
            <mxPoint x="10" as="targetPoint" />
          </mxGeometry>
        </mxCell>
        <mxCell id="xzF20jW_O1vHVqpB1kel-107" value="" style="endArrow=none;html=1;rounded=0;exitX=1;exitY=0.5;exitDx=0;exitDy=0;" edge="1" parent="1" source="xzF20jW_O1vHVqpB1kel-92">
          <mxGeometry width="50" height="50" relative="1" as="geometry">
            <mxPoint x="690" y="370" as="sourcePoint" />
            <mxPoint x="740" y="320" as="targetPoint" />
          </mxGeometry>
        </mxCell>
      </root>
    </mxGraphModel>
  </diagram>
</mxfile>
